<?xml version="1.0" encoding="utf-8"?>
<!-- Generator: Adobe Illustrator 19.2.1, SVG Export Plug-In . SVG Version: 6.00 Build 0)  -->
<svg version="1.1" id="layer" xmlns="http://www.w3.org/2000/svg" xmlns:xlink="http://www.w3.org/1999/xlink" x="0px" y="0px"
	 viewBox="0 0 652 652" style="enable-background:new 0 0 652 652;" xml:space="preserve">
<style type="text/css">
	.st0{fill:#A5915F;}
</style>
<polygon class="st0" points="187.9,256.4 225.2,256.4 192.1,385 154.9,385 "/>
<g>
	<path class="st0" d="M242.8,257.7h37.3l-8,29.8h15.5l-5.5,21.8h-15.7l-11.8,46.5c-1.3,5.2,1.1,7.7,7.3,7.6h6.2l-5.6,21.6
		c-7.5,0.6-14.5,0.9-21.1,0.9c-11.4,0.1-19.1-1.3-23.1-4.3c-4.6-3.1-5.4-9.8-2.6-20.3L242.8,257.7z"/>
</g>
<polygon class="st0" points="301.5,287.6 338.8,287.6 313.7,385 276.5,385 "/>
<g>
	<path class="st0" d="M355.7,287.6H393l-16.5,64.3c-2.1,7.8,0.3,11.7,7.3,11.6c7.3,0.1,12-3.8,14-11.6l16.5-64.3h37.3l-25,97.5
		h-37.2l2.9-11.8H392c-7.5,9.5-18.1,14.2-31.6,14.2c-8.6,0.1-15.2-1.7-19.8-5.4c-4.9-3.7-6.2-10.6-3.7-20.8L355.7,287.6z"/>
	<path class="st0" d="M615.5,290.1c-4.8-3.6-11.7-5.3-20.5-5.2c-5.9,0-11.7,1.1-17.4,3.3c-5.9,2.3-11.2,6.2-15.7,11.7
		c-0.9-5-3.3-8.8-7.1-11.3c-3.9-2.4-9.8-3.7-17.8-3.7c-13.6,0-24.3,4.9-31.9,14.5h-0.4l3-11.9h-37.6L445,385h37.4l16.6-64.3
		c2-7.8,6.6-11.6,13.8-11.5c7.2-0.1,9.6,3.8,7.5,11.6L503.7,385h37.2l16.6-64.3c2.1-7.8,6.8-11.6,14.2-11.5
		c7.2-0.1,9.7,3.8,7.5,11.5L562.7,385h16.4c11.7,0,22.8-7.5,25.4-17.9l14.4-55.7C621.3,301.2,620.3,294.1,615.5,290.1"/>
	<path class="st0" d="M84.2,338l25.4-53.6l-3,53.6H84.2z M147,385l-5-128.6h-22.2c-18.5,0.6-34.1,10.5-42.9,25.6L20.1,385l42.9,0
		l10.1-22.3h32.1L104,385H147z"/>
</g>
</svg>
